<?xml version="1.0" encoding="UTF-8"?>
<svg id="Layer_1" xmlns="http://www.w3.org/2000/svg" version="1.1" viewBox="0 0 64 64">
  <!-- Generator: Adobe Illustrator 29.8.4, SVG Export Plug-In . SVG Version: 2.1.1 Build 6)  -->
  <!-- Colors inlined for JOSM svgSalamander compatibility -->
  <path fill="#fa9e03" d="M13.54,9.63c1-.4,6.86-2.13,7.86-2.43,1.6-.6,3.4-1.1,5.1-1.4l1.3-.2c1.4-.2,3.7-.2,5.1,0l1.4.2c2,.3,3.3.8,5.2,1.4.8.3,1.8.7,2.5,1.1h0c.3-.7.5-1.4.7-2,.7-1.6,2.3-3.3,3.9-3.8,4.1-1.4,9.1,0,10.7,4.4.8,2.1.8,4.4,0,6.4-.9,1.9-2.7,3.8-4.6,4.5h-.3c.3.6.5,1,.9,1.5.4.6.9,1.2,1.2,1.8v.2c.4.9.9,1.7,1.2,2.7h0v.2c.4.4.4,1,.7,1.2.6,1.6,1,3.7,1.4,5.4v2.1h0v.5c.3.8,0,2.4.6,3h-.2c0,1.7.3,3.5.2,5.3v.9h-.2v1.3c.2.4,0,.3,0,.8,0,.2-.2.4-.3.5v.2c.1.1.2.3,0,.4-.2,0-.3,0-.4.2,0,0,0,.2.2.3,0,.1-.2.2-.3.3v.8c0,.2-.2.4-.3.5s-.2.3-.2.4h0c-.2.5-.5.7-.5.9-.5.7-1.2,1.6-1.9,2-.6.5-.7.6-1.2.9-.3.2-.6.4-.9.6l-.3.2c-.2.2-.5.3-.7.4h0c0,.1-.2.2-.3.3h-.2q-.3,0-.5.2c-.7.4-5.2,2-5.8,1.6l-.2.2h-.5c-1,0-2,.4-2.9.5-1.3.2-2.6.3-3.9.4h-1c-.3,0-.5,0-.7.3l-.6-.2c-1.9,1.1-5.6,1-7.7.7-.5,0-1.1,0-1.5-.2-.6-.2-1.2-.4-1.8-.6-3.3.2-8.5-.9-11.6-2-.6-.2.32-1.14-.28-1.44.3-1.5-1.02-1.86-1.02-3.26-.7.5-2.4,2.2-3.2,2.8-.2,0-.3-.2-.4-.3-.3-.3.2-4.9.3-5.6-1,.6-3.1,2.3-3.7,3.1-.3-.4-.5-.8-.6-1.3h0c-.2-.7-.9-5-.8-5.3-.2-.3,0-5.8,0-6.2-.2-.6.5-4.7.7-5.5,0-.3.3-1.4.4-1.6.3-1.3.6-2.7,1.1-3.8.2-1.1,3.84-8.94,4.74-9.24"/>
  <path fill="#ececec" d="M9.3,39.8c1.5,3,5.45,7.2,8.65,8.9l.42.55c.5,3.6,1.83,5.35,4.83,7.15.3.2.6.3.8.4-3.3.2-8.6-.9-11.8-2-.6-.2-1.3-.5-1.9-.8.3-1.5.6-2.5.6-4-.7.5-2.4,2.2-3.2,2.8-.2,0-.3-.2-.4-.3-.3-.3.2-5,.3-5.7-1,.6-3.1,2.3-3.8,3.1-.3-.4-.5-.8-.6-1.3h0c-.2-.7-.9-5.1-.8-5.4,2-.9,4.9-2.3,6.8-3.4h.1Z"/>
  <path fill="#fcfcfc" d="M30.6,39.6c1.2,0,6.6,0,7.5.4h0c1,.7,2.1,1.6,2.9,2.4.3.4,1.2,1.5,1.4,1.9.7,1,1.1,2.3,1.2,3.5v1c.2,1.6-1.2,3.6-2.2,4.8-.3.4-.6.7-.9,1-.3.3-.8.6-1,.9-.2.3-.5.2-.6.2l-.5.5c-.4.2-1.4.7-1.8.7h0c-.3.2-.5.2-.7.4l-.6-.2c-1.9,1.1-5.7,1-7.8.7-.5,0-1.1,0-1.5-.2-.6-.2-1.2-.4-1.8-.6-.2-.2-.5-.3-.8-.4-3-1.8-5.2-4.1-5.7-7.7,0-3.9,2.6-6.7,5.7-8.7v-.2c.8-.2,2.1,0,2.8-.2h4.5-.1s0-.2,0-.2Z"/>
  <path fill="#e37438" d="M32.4,15.6c2.97,6.07,5.29,14.67,7.2,21.7h.2c-.1,1.26.95,2.34.6,3.3,0,.5.9,1.3.6,1.8-.8-.8-1.9-1.7-2.9-2.3-4.1-.68-10.47-.53-14.7-.2,1.49-8.28,3.95-17.07,8.3-24.2h-.1"/>
  <path fill="#1f1f20" d="M30.6,39.6c1.2,0,6.6,0,7.5.4h0c-1.4,1.8-3.3,3.4-5,4.8-.5.4-1.3,1-1.8,1.4,0,1,0,2-.1,3,2.1,1.2,4.3,1.8,5.8-.7.3-.4.4-.6.8-.6.4.3,0,.8-.2,1.1-1.5,2.6-4.5,2.5-6.8.9h0c-.5.2-.8.4-1.2.6-1.2.5-2.5.8-3.8.2-.9-.4-1.7-1.1-2.1-2v-.4c.2-.2.5-.3.7,0,1.3,2.4,4,2.3,6,.8v-1.9c.4-1.4.2-5.9.2-7.6h0Z"/>
  <path fill="#353640" d="M23.4,39.8c.7-.2,1.77-.2,2.7-.2h4.5c0,1.6.2,6.2-.2,7.6v-.9c-1.3-.7-6.2-5.1-7.1-6.3v-.2c.1,0,0,0,0,0,0,0,.1,0,.1,0Z"/>
  <path fill="#bbbbbf" d="M49.6,38.3v.1c.83.46,1.65.97,2.5,1.4,1.88,1.2,4.06,2.11,5.9,3.1.2,0,.6.3.8.3-.52,4.53-1.88,8.15-7,10.7-4.6,2.39-10.34,2.9-15.5,3.2h0c3.57-1.39,7.4-4.93,7-9.2,3-2.05,5.6-4.54,6.48-7.96"/>
  <path fill="#e4830e" d="M49.6,38.4c.7.4,1.4.8,2.1,1.2l.4.2h0c-.2.3-.4.5-.5.8l-.2.2c-1.6,2.7-4.8,6.4-7.7,7.9h-.2v-1c2.2-1.4,3.9-4,5-6.3.3-.6,1.1-2.4,1.1-3h0Z"/>
  <path fill="#1f1f20" d="M55.2,51.4c-.3-.4-1.8-4-1.8-4.3h.2c1,.6,2.6,1.8,3.5,2.3-.5.7-1.2,1.6-1.9,2h0Z"/>
  <path fill="#ececec" d="M4.7,25.9c.2-1.1,3.15-7.67,4.15-7.97-1.1,2.6-2.5,6.6-2.5,9.5-.7-.3-.85.04-1.55-.26"/>
  <path fill="#e37438" d="M10.3,2.4c2.78-1.78,8.21,2.19,8.6,6-4.03,2.53-8.14,6.04-10.37,10.3C1.5,16.5.53,5.65,7.7,2.9"/>
  <path fill="#bbbbbf" d="M10.1,16.2h-.3c-.6-.2-1.5-.8-2-1.3-2-2.1-1.9-5.5.3-7.5,1.2-1.1,2.2-1.4,3.8-1.4.3,0,.8,0,1.1.2,1.9.6,2.88,1.97,3.58,3.77-.6.4-1.3.89-1.8,1.39l-.58.49c-1.3,1.1-1.36,1.17-2.55,2.48-.2.3-1.36,1.57-1.56,1.87h-.1.1Z"/>
  <path fill="#353640" d="M3.1,31.3h.1"/>
  <path fill="#353640" d="M7.7,36.2c1.1,0,6-.5,6.7,0v.2c-.5.9-4.2,2.8-5.2,3.4-2,1.1-4.8,2.6-6.8,3.4-.2-.3,0-5.9,0-6.3"/>
  <path fill="#ececec" d="M3.2,31.3h3.4c.2,1.8.6,3.1,1.1,4.9-1.6.2-3.71.62-5.31,1.02-.2-.6.61-5.02.81-5.82h0v-.1Z"/>
  <path fill="#bbbbbf" d="M58.06,31.41c.08.39.01,1.56.03,1.91,0,.4.01.37.03.58.17.82.1,2,.41,2.71.05.14.06.22.01.26-1.46-.24-3.81-.45-5.3-.68-.21-.18.18-1.07.21-1.41.21-.69.23-1.25.42-1.98.14-.49.15-1.13.44-1.39.5-.27,1.43-.04,2.04-.09.63.04,1.13-.1,1.67,0l.03.07Z"/>
  <path fill="#353640" d="M34.6,5.87c2,.3,3.3.8,5.3,1.4-3.45,15.04-4.56,10.86-5.2-1.4h-.1Z"/>
  <path fill="#353640" d="M21.5,7.14c1.6-.6,3.4-1.1,5.2-1.4-.11,1.56-.29,11.1-1.6,11.4-2.13-1.92-2.26-6.05-3.2-8.7h0c-.2-.6-.2-.9-.4-1.4h0v.1Z"/>
  <path fill="#353640" d="M4.6,25.8c.7.3,1.4.6,2.1.9,1.3.6,7.3,3.2,7.8,4.1h0c-.7.5-6.7.6-7.9.6h-3.4c0-.2.3-1.3.4-1.6.3-1.3.6-2.7,1.1-3.9h0l-.1-.1Z"/>
  <path fill="#353640" d="M27.9,5.56c1.4-.2,3.8-.2,5.2,0,0,.5-1,9.7-2.7,8.1-1.3-1.1-2.3-6.2-2.5-8.1h0Z"/>
  <path fill="#e4830e" d="M50.53,31.26c4.49-.44,4.11-2.68,3.64,4.11-.21,2.94-3.98,2.32-3.94.62.03-1.41.28-3.16.31-4.72Z"/>
  <path fill="#1f1f20" d="M58.53,43c-.3,0-.6-.2-.8-.3h0c-1.99-.93-4.03-2-5.9-3-1.6-1.07-4.41-1.98-5.2-3.7,3.52-.91,8.34.2,11.9.7"/>
  <path fill="#bbbbbf" d="M52.27,18.15c.39.12.86.81,1.13,1.23,1.34,1.61,2.21,3.66,2.99,5.61.12.29.47.76.32,1-.22.31-1.22.65-1.61.66-.48-.07-.43-.75-.53-1.14-.31-2.55-1.1-5.17-2.33-7.36h.03Z"/>
  <path fill="#de7942" d="M43.9,9.4"/>
  <path fill="#de7942" d="M45.6,10.5"/>
  <path fill="#de7942" d="M49.8,14.5v.2"/>
  <path fill="#f38c52" d="M18.6,33.8c2.35-.12,2.68,3.43.4,3.7-2.67.32-2.78-3.9-.4-3.7Z"/>
  <path fill="#f38c52" d="M42.6,33.7c2.21.23,2.98,3.45.4,3.9-2.56.02-2.63-3.37-.4-3.9Z"/>
  <path fill="#1f1f20" d="M42.5,27.5c1.71-.59,2.66,2.43.8,2.8-2.17.34-1.99-2.32-.8-2.8Z"/>
  <path fill="#1f1f20" d="M18.2,27.6c1.72-.63,2.68,2.24.8,2.7-1.91.63-2.28-2.63-.8-2.7Z"/>
  <path fill="#009b61" d="M51,40.2c5.7-.6,10.9,3.6,11.4,9.3.6,5.7-3.6,10.9-9.3,11.4-5.7.6-10.9-3.6-11.4-9.3-.6-5.7,3.6-10.9,9.3-11.4Z"/>
  <path fill="#fcfcfc" d="M56.8,45.8c.5.5,1,.9,1.5,1.4-.3.5-.6,1-1,1.5-1.9,2.6-3.7,5.2-5.4,7.9-1.2-1-3.4-3.3-4.5-4.5-.5-.6-1.1-1.1-1.6-1.6.6-.6,1-1.1,1.6-1.6l4.1,4.3c1.8-2.3,3.4-4.9,5.3-7.3h0v-.1Z"/>
  <path fill="#1f1f20" d="M54.81,26.51c.16-.1.54-.23.82-.35.38-.1.77-.46,1.14-.23.6,1.58,1.02,3.69,1.33,5.38-.67.06-6.95.01-7.88.02-4.15-.12-4.07-.62-.42-2.36,1.63-.89,3.32-1.52,4.95-2.41l.07-.05Z"/>
  <path fill="#e37438" d="M50.57,15.45c-2.15-3-5.19-5.88-8.57-7.34v.19c-.08.11.13-.39.14-.47l.12-.34c.54-2.06,1.99-4.01,3.9-4.95,3.21-1.4,7.24-.86,9.67,1.56,2.57,2.56,3.12,7.12,1.31,10.15-.65,1.21-4,5.03-5.11,3.26"/>
  <path fill="#bbbbbf" d="M44.5,9.6c.6-1.1,1.1-2,2.2-2.7,3.9-2.6,8.5.6,7.8,5.1-.5,2.2-1.4,3.1-3.4,4.2-.5-.6-.9-1.4-1.5-2-1.5-1.7-3.2-3.3-5.2-4.6h.1Z"/>
</svg>
